<?xml version="1.0" encoding="UTF-8"?>
<svg version="1.1" xmlns="http://www.w3.org/2000/svg" width="1080" height="1080">
<path d="M0 0 C356.4 0 712.8 0 1080 0 C1080 356.4 1080 712.8 1080 1080 C723.6 1080 367.2 1080 0 1080 C0 723.6 0 367.2 0 0 Z " fill="#FEFEFE" transform="translate(0,0)"/>
<path d="M0 0 C8.67116405 6.763742 14.08827522 13.84446943 17.796875 24.1640625 C18.28950333 25.48371002 18.28950333 25.48371002 18.79208374 26.83001709 C19.85933771 29.69740223 20.90809984 32.57118028 21.95703125 35.4453125 C22.69878445 37.44678228 23.4418854 39.44775305 24.1862793 41.44824219 C25.71577979 45.56398896 27.23833113 49.68219896 28.75488281 53.80273438 C31.92635875 62.41525142 35.14224051 71.01106635 38.36306763 79.60522461 C39.31126646 82.13980717 40.25462735 84.67614495 41.19702148 87.21289062 C41.77969633 88.77477272 42.36245539 90.33662341 42.9453125 91.8984375 C43.32555069 92.92695831 43.32555069 92.92695831 43.71347046 93.97625732 C45.03755739 97.51334085 46.45918294 100.97725512 48.01074219 104.42114258 C49.92862613 108.68182181 51.61565251 112.99714599 53.234375 117.37890625 C53.52656418 118.16222824 53.81875336 118.94555023 54.11979675 119.75260925 C54.74438543 121.42759337 55.36777607 123.10302465 55.99005127 124.77886963 C57.64629569 129.23890596 59.31144091 133.69561552 60.9765625 138.15234375 C61.31399475 139.05595642 61.651427 139.95956909 61.99908447 140.89056396 C65.84244109 151.16921204 69.77171421 161.41474796 73.71850586 171.65405273 C76.16430635 178.00935329 78.57287173 184.37669471 80.88671875 190.78125 C81.29776855 191.91868652 81.70881836 193.05612305 82.13232422 194.22802734 C83.01953125 196.9453125 83.01953125 196.9453125 83.01953125 198.9453125 C64.53953125 198.9453125 46.05953125 198.9453125 27.01953125 198.9453125 C24.64765625 192.1596875 22.27578125 185.3740625 19.83203125 178.3828125 C19.0944458 176.27447021 18.35686035 174.16612793 17.59692383 171.99389648 C16.99402997 170.2681619 16.39139927 168.54233535 15.7890625 166.81640625 C15.46525101 165.88888046 15.14143951 164.96135468 14.80781555 164.00572205 C12.50873466 157.40081207 10.28503073 150.77509182 8.1315918 144.12133789 C6.91680564 140.65192998 5.48396085 137.31602757 4.01953125 133.9453125 C3.49490998 132.55142379 2.98695534 131.15102276 2.50390625 129.7421875 C2.09241333 128.5502478 2.09241333 128.5502478 1.67260742 127.33422852 C1.37459229 126.46338623 1.07657715 125.59254395 0.76953125 124.6953125 C0.07329888 122.67825345 -0.62335548 120.66134003 -1.3203125 118.64453125 C-1.72491699 117.47196777 -2.12952148 116.2994043 -2.54638672 115.09130859 C-5.2738978 107.19786075 -8.02610623 99.312965 -10.7755127 91.42712402 C-11.78063191 88.54320967 -12.78440686 85.65882988 -13.78808594 82.77441406 C-14.42116014 80.95766005 -15.05429564 79.1409274 -15.6875 77.32421875 C-16.11839684 76.08464165 -16.11839684 76.08464165 -16.55799866 74.82002258 C-17.09964146 73.26765895 -17.64565095 71.7168098 -18.19668579 70.16775513 C-18.72932683 68.65743377 -19.24536254 67.14117478 -19.74642944 65.62008667 C-20.40464591 63.69669981 -21.18338253 61.81542466 -21.98046875 59.9453125 C-22.97046875 59.6153125 -23.96046875 59.2853125 -24.98046875 58.9453125 C-25.15932617 59.48696045 -25.33818359 60.0286084 -25.52246094 60.58666992 C-27.37152116 66.16315329 -29.2818001 71.71543631 -31.23046875 77.2578125 C-32.08038695 79.67987003 -32.93011258 82.10199369 -33.77908325 84.52438354 C-34.67394193 87.07248153 -35.57194252 89.61938233 -36.47189331 92.16567993 C-40.78974265 104.40995029 -44.92257883 116.70786429 -48.97265625 129.04296875 C-49.61027795 130.9802332 -50.24806829 132.91744216 -50.88601685 134.854599 C-52.54103569 139.88159009 -54.1938436 144.90930519 -55.84613037 149.93719482 C-57.53800282 155.08422336 -59.23197227 160.23056162 -60.92578125 165.37695312 C-63.64977997 173.65403421 -66.3726542 181.93148398 -69.09342957 190.20962524 C-70.05120099 193.12307641 -71.01064664 196.03584616 -71.98046875 198.9453125 C-91.45046875 198.9453125 -110.92046875 198.9453125 -130.98046875 198.9453125 C-129.86278655 191.12153711 -129.86278655 191.12153711 -127.66796875 187.1328125 C-125.55812316 183.11807774 -123.75945355 179.10812975 -122.12255859 174.88085938 C-117.3904145 162.71769123 -112.38088348 150.67989312 -107.28051758 138.66772461 C-106.42144929 136.64282876 -105.56596446 134.61644871 -104.7109375 132.58984375 C-104.20973389 131.40753174 -103.70853027 130.22521973 -103.19213867 129.00708008 C-101.86070587 125.83875905 -101.86070587 125.83875905 -100.98046875 121.9453125 C-127.05046875 121.9453125 -153.12046875 121.9453125 -179.98046875 121.9453125 C-179.98046875 147.3553125 -179.98046875 172.7653125 -179.98046875 198.9453125 C-197.47046875 198.9453125 -214.96046875 198.9453125 -232.98046875 198.9453125 C-233.09336927 175.35361919 -233.18546081 151.76214486 -233.23952961 128.17024994 C-233.26530281 117.21594058 -233.30043661 106.26181109 -233.35766602 95.30761719 C-233.40752784 85.75908299 -233.43976619 76.21067907 -233.45091122 66.6620183 C-233.45742523 61.60678511 -233.47271683 56.55192458 -233.50911903 51.49681091 C-233.54312229 46.73614771 -233.55351292 41.97600977 -233.54600716 37.21523666 C-233.54737976 35.47055581 -233.55728652 33.72585692 -233.57649612 31.98128128 C-233.75455534 14.97228854 -233.75455534 14.97228854 -227.98046875 8.9453125 C-222.29659783 3.26144158 -215.47953398 1.61005288 -207.70243835 1.572052 C-206.80547745 1.58283783 -205.90851654 1.59362366 -204.984375 1.60473633 C-204.0176033 1.60429825 -203.0508316 1.60386017 -202.05476379 1.60340881 C-198.88395443 1.60548588 -195.71368487 1.6287659 -192.54296875 1.65234375 C-190.33480111 1.65794355 -188.12662974 1.66221183 -185.91845703 1.66520691 C-180.12503654 1.6766254 -174.33184402 1.70606688 -168.53851318 1.73931885 C-161.57757782 1.77549971 -154.61656596 1.78919513 -147.65556335 1.80667877 C-137.09704025 1.83570587 -126.53901672 1.8932144 -115.98046875 1.9453125 C-115.98046875 17.1253125 -115.98046875 32.3053125 -115.98046875 47.9453125 C-122.42513672 47.96658203 -122.42513672 47.96658203 -129 47.98828125 C-132.42432989 48.01352295 -135.84853493 48.04374946 -139.272789 48.07735443 C-142.88840683 48.1114675 -146.50359771 48.13677969 -150.11938477 48.14086914 C-153.6016479 48.14514568 -157.08295247 48.17355165 -160.56491661 48.21874428 C-162.54072821 48.23806832 -164.51673299 48.23235554 -166.49263 48.22636414 C-167.69364853 48.24600723 -168.89466705 48.26565033 -170.13208008 48.28588867 C-171.1913118 48.29255051 -172.25054352 48.29921234 -173.34187317 48.30607605 C-176.1746342 48.70788799 -176.1746342 48.70788799 -177.82328796 51.24385071 C-179.37253762 54.86060516 -179.38090026 58.2083606 -179.29296875 62.0703125 C-179.29619141 62.78574219 -179.29941406 63.50117188 -179.30273438 64.23828125 C-179.26409791 67.99655572 -179.11126808 69.74911351 -176.98046875 72.9453125 C-173.96020424 73.23136373 -171.14594391 73.32327045 -168.12451172 73.28588867 C-167.20738403 73.28632675 -166.29025635 73.28676483 -165.34533691 73.28721619 C-162.30422918 73.28512082 -159.26366805 73.26175452 -156.22265625 73.23828125 C-154.11801454 73.23268796 -152.01336893 73.2284166 -149.90872192 73.22541809 C-144.36180896 73.21394834 -138.81513063 73.18446281 -133.26831055 73.15130615 C-127.61119766 73.12065115 -121.95404696 73.10692254 -116.296875 73.09179688 C-105.19130301 73.05959518 -94.08590537 73.00837311 -82.98046875 72.9453125 C-82.51991089 71.77645508 -82.51991089 71.77645508 -82.05004883 70.58398438 C-81.04732442 68.11024655 -79.90910677 65.80630469 -78.66796875 63.4453125 C-76.80922811 59.76749946 -75.21946258 56.08717812 -73.78125 52.2265625 C-70.84429977 44.50826384 -67.6935494 36.8879781 -64.46923828 29.28564453 C-63.80492029 27.71326127 -63.14581267 26.13866739 -62.49169922 24.56201172 C-61.53094441 22.24714095 -60.55441332 19.93950771 -59.57421875 17.6328125 C-59.28760376 16.93381836 -59.00098877 16.23482422 -58.70568848 15.51464844 C-56.80134245 11.09667377 -54.63191995 8.20003786 -50.98046875 4.9453125 C-50.43003906 4.4090625 -49.87960937 3.8728125 -49.3125 3.3203125 C-35.07407894 -9.56381144 -15.85213797 -10.92821045 0 0 Z " fill="#4F519C" transform="translate(454.98046875,369.0546875)"/>
<path d="M0 0 C0.91771179 -0.00029205 1.83542358 -0.00058411 2.78094482 -0.00088501 C5.80018726 0.00050313 8.81917983 0.01604011 11.83837891 0.03173828 C13.93730535 0.03547024 16.03623354 0.03831635 18.13516235 0.04031372 C23.64907677 0.04793575 29.16288517 0.067572 34.67675781 0.08972168 C41.29809885 0.11381577 47.91947541 0.1229679 54.54084778 0.1346283 C64.5906193 0.15399717 74.64015838 0.19232984 84.68994141 0.22705078 C84.68994141 17.38705078 84.68994141 34.54705078 84.68994141 52.22705078 C80.32130859 52.26443359 75.95267578 52.30181641 71.45166016 52.34033203 C67.97000861 52.37843374 64.48842036 52.41950655 61.00682831 52.46259308 C57.33066376 52.50727095 53.65461366 52.54670245 49.97827148 52.57348633 C46.43784078 52.59948153 42.89784029 52.63985595 39.35767555 52.69023705 C37.34863106 52.71506056 35.33942024 52.72496059 33.33024597 52.73469543 C32.1092067 52.75448959 30.88816742 52.77428375 29.63012695 52.79467773 C28.55313034 52.80578079 27.47613373 52.81688385 26.36650085 52.82832336 C23.30946893 53.0123224 23.30946893 53.0123224 20.68994141 56.22705078 C20.35994141 61.83705078 20.02994141 67.44705078 19.68994141 73.22705078 C40.47994141 73.22705078 61.26994141 73.22705078 82.68994141 73.22705078 C82.68994141 90.71705078 82.68994141 108.20705078 82.68994141 126.22705078 C61.89994141 126.22705078 41.10994141 126.22705078 19.68994141 126.22705078 C19.77315963 136.9020588 19.77315963 136.9020588 21.68994141 147.22705078 C42.47994141 147.22705078 63.26994141 147.22705078 84.68994141 147.22705078 C84.68994141 164.05705078 84.68994141 180.88705078 84.68994141 198.22705078 C61.38226665 198.42759483 61.38226665 198.42759483 51.40869141 198.47119141 C44.6164993 198.50102272 37.82464583 198.53622456 31.03271484 198.60424805 C25.55377376 198.65877496 20.07519607 198.68851507 14.59600449 198.701437 C12.51089639 198.71063977 10.42580706 198.72861055 8.34085464 198.75570107 C-4.50469941 198.91589393 -13.90633994 198.82713271 -24.06005859 190.16455078 C-35.06993643 177.79017324 -34.05077485 165.19594968 -33.68505859 149.47705078 C-33.65491601 147.21927391 -33.62754781 144.96145821 -33.60302734 142.70361328 C-33.53738758 137.21056877 -33.43738205 131.71899374 -33.31005859 126.22705078 C-34.2127095 126.24703629 -35.11536041 126.26702179 -36.04536438 126.28761292 C-44.59174263 126.46866047 -53.13746835 126.6053266 -61.68533039 126.69336033 C-66.07906332 126.74014435 -70.47119959 126.80349421 -74.86401367 126.90600586 C-79.11114639 127.00448677 -83.35675326 127.05774939 -87.60494041 127.08094597 C-89.21771434 127.0974546 -90.83041358 127.12969317 -92.44252968 127.17862129 C-102.21173043 127.4630683 -108.67858245 126.64396075 -116.1627655 119.63487244 C-119.33386139 116.07903119 -122.01891762 112.40219619 -124.31005859 108.22705078 C-124.68259766 107.57865234 -125.05513672 106.93025391 -125.43896484 106.26220703 C-127.33497431 101.83251674 -126.99101761 96.69952614 -125.72802734 92.11376953 C-122.20697746 84.09092071 -114.78828593 77.5082081 -107.31005859 73.22705078 C-103.77920532 72.74603271 -103.77920532 72.74603271 -99.8359375 72.77294922 C-99.11329712 72.77236511 -98.39065674 72.77178101 -97.64611816 72.7711792 C-95.27578397 72.77394891 -92.90673347 72.80498546 -90.53662109 72.83642578 C-88.88610521 72.8438922 -87.23558043 72.84958324 -85.58505249 72.85357666 C-81.25461065 72.86880161 -76.924711 72.90805577 -72.59448242 72.95239258 C-68.17032199 72.99341344 -63.7460734 73.01160218 -59.32177734 73.03173828 C-50.65095645 73.07455359 -41.98057509 73.14276617 -33.31005859 73.22705078 C-33.32116165 72.62285309 -33.33226471 72.0186554 -33.34370422 71.39614868 C-33.45490659 65.06893804 -33.52997678 58.74200803 -33.5847168 52.4140625 C-33.60975568 50.05717683 -33.643797 47.70036799 -33.68725586 45.34375 C-33.7483745 41.9426775 -33.77637587 38.54263758 -33.79833984 35.14111328 C-33.82414627 34.09903717 -33.8499527 33.05696106 -33.87654114 31.98330688 C-33.87979572 23.36300247 -31.11635042 17.63693794 -26.56005859 10.47705078 C-18.78707055 2.70406274 -10.78329889 -0.09043395 0 0 Z " fill="#14A8F0" transform="translate(737.31005859375,369.77294921875)"/>
<path d="M0 0 C2.66859864 0.02802126 5.33718289 0.04793541 8.00585938 0.06835938 C14.48411674 0.11864079 20.95912287 0.21657141 27.4375 0.3125 C27.4375 17.1425 27.4375 33.9725 27.4375 51.3125 C3.1875 51.5 3.1875 51.5 -4.39160156 51.52026367 C-19.30199896 51.6675667 -31.1414939 52.77760644 -42.5625 63.3125 C-47.35866424 68.22470048 -52.27411134 73.35520126 -53.5625 80.3125 C-54.2225 80.3125 -54.8825 80.3125 -55.5625 80.3125 C-57.56293448 99.49523775 -57.49832348 114.87206739 -46.5625 131.3125 C-46.16160156 131.93125 -45.76070312 132.55 -45.34765625 133.1875 C-41.87084897 137.93872418 -36.6901165 140.65951581 -31.5625 143.3125 C-30.60061768 143.82570801 -29.63873535 144.33891602 -28.64770508 144.86767578 C-23.45157542 147.06207692 -18.06183996 146.79229199 -12.50390625 146.82421875 C-11.48872925 146.84085571 -10.47355225 146.85749268 -9.4276123 146.87463379 C-5.66028243 146.93216853 -1.89260306 146.96461968 1.875 147 C10.310625 147.103125 18.74625 147.20625 27.4375 147.3125 C27.4375 164.4725 27.4375 181.6325 27.4375 199.3125 C20.25301328 199.41794746 13.0713993 199.51803647 5.8868103 199.57125092 C2.53962835 199.59743728 -0.80641019 199.63509672 -4.15332031 199.68969727 C-32.26602082 200.13651468 -32.26602082 200.13651468 -43.5625 194.3125 C-45.03243165 193.67159872 -46.50246918 193.03094015 -47.97265625 192.390625 C-49.19580738 191.79278 -50.41345305 191.1835244 -51.625 190.5625 C-52.28854492 190.22452393 -52.95208984 189.88654785 -53.63574219 189.53833008 C-76.16963469 177.76709494 -95.85049196 158.33493263 -104.16796875 133.86328125 C-105.4601627 129.71515793 -106.58452184 125.54518165 -107.5625 121.3125 C-107.74723877 120.56266846 -107.93197754 119.81283691 -108.12231445 119.0402832 C-109.69887429 112.10019815 -109.91020484 105.3493074 -109.875 98.25 C-109.86936035 97.05987305 -109.8637207 95.86974609 -109.85791016 94.64355469 C-109.49842417 68.39751835 -100.95086393 47.16813177 -82.5625 28.3125 C-81.97855469 27.65507812 -81.39460937 26.99765625 -80.79296875 26.3203125 C-60.08316475 3.56574304 -28.77897295 -0.47413291 0 0 Z " fill="#51539D" transform="translate(641.5625,369.6875)"/>
<path d="M0 0 C0.91771179 -0.00029205 1.83542358 -0.00058411 2.78094482 -0.00088501 C5.80018726 0.00050313 8.81917983 0.01604011 11.83837891 0.03173828 C13.93730535 0.03547024 16.03623354 0.03831635 18.13516235 0.04031372 C23.64907677 0.04793575 29.16288517 0.067572 34.67675781 0.08972168 C41.29809885 0.11381577 47.91947541 0.1229679 54.54084778 0.1346283 C64.5906193 0.15399717 74.64015838 0.19232984 84.68994141 0.22705078 C84.68994141 17.38705078 84.68994141 34.54705078 84.68994141 52.22705078 C80.32130859 52.26443359 75.95267578 52.30181641 71.45166016 52.34033203 C67.97000861 52.37843374 64.48842036 52.41950655 61.00682831 52.46259308 C57.33066376 52.50727095 53.65461366 52.54670245 49.97827148 52.57348633 C46.43784078 52.59948153 42.89784029 52.63985595 39.35767555 52.69023705 C37.34863106 52.71506056 35.33942024 52.72496059 33.33024597 52.73469543 C32.1092067 52.75448959 30.88816742 52.77428375 29.63012695 52.79467773 C28.55313034 52.80578079 27.47613373 52.81688385 26.36650085 52.82832336 C23.30946893 53.0123224 23.30946893 53.0123224 20.68994141 56.22705078 C20.35994141 61.83705078 20.02994141 67.44705078 19.68994141 73.22705078 C2.19994141 73.22705078 -15.29005859 73.22705078 -33.31005859 73.22705078 C-33.41318359 65.18330078 -33.51630859 57.13955078 -33.62255859 48.85205078 C-33.66807861 46.33273926 -33.71359863 43.81342773 -33.76049805 41.21777344 C-33.7751186 39.19223354 -33.78785555 37.16667881 -33.79833984 35.14111328 C-33.82391968 34.11268311 -33.84949951 33.08425293 -33.87585449 32.0246582 C-33.88100355 23.38454312 -31.12750595 17.65446806 -26.56005859 10.47705078 C-18.78707055 2.70406274 -10.78329889 -0.09043395 0 0 Z " fill="#5154A5" transform="translate(737.31005859375,369.77294921875)"/>
<path d="M0 0 C17.49 0 34.98 0 53 0 C53.495 8.91 53.495 8.91 54 18 C54.495 19.485 54.495 19.485 55 21 C75.79 21 96.58 21 118 21 C118 37.83 118 54.66 118 72 C94.69232524 72.20054405 94.69232524 72.20054405 84.71875 72.24414062 C77.9265579 72.27397194 71.13470443 72.30917378 64.34277344 72.37719727 C58.86383235 72.43172418 53.38525467 72.46146429 47.90606308 72.47438622 C45.82095498 72.48358899 43.73586565 72.50155976 41.65091324 72.52865028 C28.80535918 72.68884315 19.40371866 72.60008193 9.25 63.9375 C-1.77913059 51.54148363 -0.73422618 39.01144616 -0.375 23.25 C-0.25125 15.5775 -0.1275 7.905 0 0 Z " fill="#5255A5" transform="translate(704,496)"/>
<path d="M0 0 C4.19753982 4.08707824 5.77814548 8.54231287 6.30078125 14.33203125 C6.3534806 29.9837371 6.3534806 29.9837371 1.67578125 35.5859375 C-2.54033244 39.41474416 -6.81431071 40.79762136 -12.375 41.3125 C-18.19215607 40.81102103 -22.98422212 39.562629 -26.9375 35.0625 C-30.28616771 30.09023583 -30.20933014 25.56937902 -30.25 19.6875 C-30.2809375 18.58631836 -30.2809375 18.58631836 -30.3125 17.46289062 C-30.35884759 10.93367453 -28.90374227 6.37967784 -24.75 1.1875 C-17.45459372 -4.61566409 -7.95230098 -4.33131862 0 0 Z " fill="#F8F8F8" transform="translate(350,680)"/>
<path d="M0 0 C4.19753982 4.08707824 5.77814548 8.54231287 6.30078125 14.33203125 C6.3534806 29.9837371 6.3534806 29.9837371 1.67578125 35.5859375 C-2.54033244 39.41474416 -6.81431071 40.79762136 -12.375 41.3125 C-18.19215607 40.81102103 -22.98422212 39.562629 -26.9375 35.0625 C-30.28616771 30.09023583 -30.20933014 25.56937902 -30.25 19.6875 C-30.2809375 18.58631836 -30.2809375 18.58631836 -30.3125 17.46289062 C-30.35884759 10.93367453 -28.90374227 6.37967784 -24.75 1.1875 C-17.45459372 -4.61566409 -7.95230098 -4.33131862 0 0 Z " fill="#F8F8F8" transform="translate(335,621)"/>
<path d="M0 0 C17.6 0 17.6 0 22 3 C24.72221698 6.9516053 25.79354479 10.23873124 25 15 C23.16210388 17.92021272 21.13584301 20.43207849 18 22 C18.60328125 22.69867187 19.2065625 23.39734375 19.828125 24.1171875 C22.03932287 27.05219474 23.37137846 29.7295062 24.75 33.125 C25.17796875 34.15882813 25.6059375 35.19265625 26.046875 36.2578125 C27 39 27 39 27 42 C25.35 42 23.7 42 22 42 C21.43410156 40.85660156 20.86820313 39.71320312 20.28515625 38.53515625 C19.54437592 37.04421862 18.80348478 35.55333604 18.0625 34.0625 C17.50272461 32.93038086 17.50272461 32.93038086 16.93164062 31.77539062 C16.57392578 31.05673828 16.21621094 30.33808594 15.84765625 29.59765625 C15.51773682 28.93258057 15.18781738 28.26750488 14.84790039 27.58227539 C14.10022992 26.00380637 14.10022992 26.00380637 13 25 C10.36 24.67 7.72 24.34 5 24 C5 29.94 5 35.88 5 42 C3.35 42 1.7 42 0 42 C0 28.14 0 14.28 0 0 Z " fill="#0E0E0E" transform="translate(721,619)"/>
<path d="M0 0 C1.4540625 0.0309375 1.4540625 0.0309375 2.9375 0.0625 C6.60148859 8.66966781 9.99885477 17.35413266 13.25 26.125 C13.9315918 27.93774414 13.9315918 27.93774414 14.62695312 29.78710938 C15.05556641 30.94146484 15.48417969 32.09582031 15.92578125 33.28515625 C16.31290283 34.32422119 16.70002441 35.36328613 17.09887695 36.43383789 C17.9375 39.0625 17.9375 39.0625 17.9375 42.0625 C15.625 42.375 15.625 42.375 12.9375 42.0625 C9.90757707 38.38330787 9.75795164 35.98520987 8.9375 31.0625 C2.9975 31.3925 -2.9425 31.7225 -9.0625 32.0625 C-11.0425 37.0125 -11.0425 37.0125 -13.0625 42.0625 C-14.3825 42.0625 -15.7025 42.0625 -17.0625 42.0625 C-16.54267556 35.99560155 -15.15004882 31.09865739 -12.8125 25.5 C-9.91795059 18.34581553 -7.35677818 11.15883404 -5.0078125 3.80859375 C-3.72290053 0.07597756 -3.72290053 0.07597756 0 0 Z " fill="#111111" transform="translate(363.0625,618.9375)"/>
<path d="M0 0 C1.4540625 0.0309375 1.4540625 0.0309375 2.9375 0.0625 C7.0333341 9.51878056 10.60730174 19.13950269 14.11425781 28.82617188 C14.66697522 30.32762249 15.234285 31.82377498 15.81542969 33.31445312 C17.9375 38.76267585 17.9375 38.76267585 17.9375 42.0625 C16.2875 42.0625 14.6375 42.0625 12.9375 42.0625 C12.26630451 40.6062455 11.60068193 39.14742133 10.9375 37.6875 C10.56625 36.87539063 10.195 36.06328125 9.8125 35.2265625 C8.9375 33.0625 8.9375 33.0625 8.9375 31.0625 C2.9975 31.3925 -2.9425 31.7225 -9.0625 32.0625 C-11.0425 37.0125 -11.0425 37.0125 -13.0625 42.0625 C-14.3825 42.0625 -15.7025 42.0625 -17.0625 42.0625 C-16.48284576 36.81151452 -15.21440106 32.14542919 -13.375 27.1875 C-12.83562984 25.7006324 -12.29657735 24.21364954 -11.7578125 22.7265625 C-11.47969727 21.96504883 -11.20158203 21.20353516 -10.91503906 20.41894531 C-10.04791671 18.02219133 -9.20394995 15.61844755 -8.3671875 13.2109375 C-8.09608154 12.43218262 -7.82497559 11.65342773 -7.5456543 10.85107422 C-7.02218858 9.34540758 -6.5001751 7.83923513 -5.97973633 6.33251953 C-3.79020403 0.0773511 -3.79020403 0.0773511 0 0 Z " fill="#111111" transform="translate(686.0625,677.9375)"/>
<path d="M0 0 C3.30322266 0.03930664 3.30322266 0.03930664 7 1 C8.80137834 3.19918435 9.90826712 4.88486427 11.1484375 7.37109375 C11.49129791 8.00862076 11.83415833 8.64614777 12.18740845 9.30299377 C13.27386324 11.33617546 14.32438849 13.38560711 15.375 15.4375 C16.1031766 16.81436572 16.83362261 18.19003379 17.56640625 19.56445312 C19.75569015 23.68688309 21.91246477 27.82492954 24 32 C24.33 21.44 24.66 10.88 25 0 C26.65 0 28.3 0 30 0 C30.02464638 5.82071622 30.0428343 11.64140234 30.05493164 17.4621582 C30.05997267 19.44393441 30.06680538 21.42570689 30.07543945 23.4074707 C30.08751515 26.24952109 30.09323045 29.09152247 30.09765625 31.93359375 C30.10281754 32.82525742 30.10797882 33.71692108 30.11329651 34.63560486 C30.11349177 36.75740601 30.0621003 38.8791078 30 41 C29 42 29 42 26.61767578 42.29467773 C24 42 24 42 22.44091797 40.47290039 C22.00408691 39.75094482 21.56725586 39.02898926 21.1171875 38.28515625 C20.61413086 37.46289551 20.11107422 36.64063477 19.59277344 35.79345703 C16.6957505 30.71256549 13.87571516 25.59908596 11.125 20.4375 C9.10375 16.663125 7.0825 12.88875 5 9 C4.67 19.89 4.34 30.78 4 42 C2.35 42 0.7 42 -1 42 C-1.02464638 36.17928378 -1.0428343 30.35859766 -1.05493164 24.5378418 C-1.05997267 22.55606559 -1.06680538 20.57429311 -1.07543945 18.5925293 C-1.08751515 15.75047891 -1.09323045 12.90847753 -1.09765625 10.06640625 C-1.10281754 9.17474258 -1.10797882 8.28307892 -1.11329651 7.36439514 C-1.11349177 5.24259399 -1.0621003 3.1208922 -1 1 C-0.67 0.67 -0.34 0.34 0 0 Z " fill="#121212" transform="translate(647,619)"/>
<path d="M0 0 C3.30322266 0.03930664 3.30322266 0.03930664 7 1 C8.80137834 3.19918435 9.90826712 4.88486427 11.1484375 7.37109375 C11.49129791 8.00862076 11.83415833 8.64614777 12.18740845 9.30299377 C13.27386324 11.33617546 14.32438849 13.38560711 15.375 15.4375 C16.1031766 16.81436572 16.83362261 18.19003379 17.56640625 19.56445312 C19.75569015 23.68688309 21.91246477 27.82492954 24 32 C24.33 21.44 24.66 10.88 25 0 C26.65 0 28.3 0 30 0 C30.02464638 5.82071622 30.0428343 11.64140234 30.05493164 17.4621582 C30.05997267 19.44393441 30.06680538 21.42570689 30.07543945 23.4074707 C30.08751515 26.24952109 30.09323045 29.09152247 30.09765625 31.93359375 C30.10281754 32.82525742 30.10797882 33.71692108 30.11329651 34.63560486 C30.11349177 36.75740601 30.0621003 38.8791078 30 41 C29 42 29 42 26.61767578 42.29467773 C24 42 24 42 22.44091797 40.47290039 C22.00408691 39.75094482 21.56725586 39.02898926 21.1171875 38.28515625 C20.61413086 37.46289551 20.11107422 36.64063477 19.59277344 35.79345703 C16.6957505 30.71256549 13.87571516 25.59908596 11.125 20.4375 C9.10375 16.663125 7.0825 12.88875 5 9 C4.67 19.89 4.34 30.78 4 42 C2.35 42 0.7 42 -1 42 C-1.02464638 36.17928378 -1.0428343 30.35859766 -1.05493164 24.5378418 C-1.05997267 22.55606559 -1.06680538 20.57429311 -1.07543945 18.5925293 C-1.08751515 15.75047891 -1.09323045 12.90847753 -1.09765625 10.06640625 C-1.10281754 9.17474258 -1.10797882 8.28307892 -1.11329651 7.36439514 C-1.11349177 5.24259399 -1.0621003 3.1208922 -1 1 C-0.67 0.67 -0.34 0.34 0 0 Z " fill="#121212" transform="translate(481,619)"/>
<path d="M0 0 C3.30322266 0.03930664 3.30322266 0.03930664 7 1 C8.80137834 3.19918435 9.90826712 4.88486427 11.1484375 7.37109375 C11.49129791 8.00862076 11.83415833 8.64614777 12.18740845 9.30299377 C13.27386324 11.33617546 14.32438849 13.38560711 15.375 15.4375 C16.1031766 16.81436572 16.83362261 18.19003379 17.56640625 19.56445312 C19.75569015 23.68688309 21.91246477 27.82492954 24 32 C24.33 21.44 24.66 10.88 25 0 C26.65 0 28.3 0 30 0 C30.02464638 5.82071622 30.0428343 11.64140234 30.05493164 17.4621582 C30.05997267 19.44393441 30.06680538 21.42570689 30.07543945 23.4074707 C30.08751515 26.24952109 30.09323045 29.09152247 30.09765625 31.93359375 C30.10281754 32.82525742 30.10797882 33.71692108 30.11329651 34.63560486 C30.11349177 36.75740601 30.0621003 38.8791078 30 41 C29 42 29 42 26.61767578 42.29467773 C24 42 24 42 22.44091797 40.47290039 C22.00408691 39.75094482 21.56725586 39.02898926 21.1171875 38.28515625 C20.61413086 37.46289551 20.11107422 36.64063477 19.59277344 35.79345703 C16.6957505 30.71256549 13.87571516 25.59908596 11.125 20.4375 C9.10375 16.663125 7.0825 12.88875 5 9 C4.67 19.89 4.34 30.78 4 42 C2.35 42 0.7 42 -1 42 C-1.02464638 36.17928378 -1.0428343 30.35859766 -1.05493164 24.5378418 C-1.05997267 22.55606559 -1.06680538 20.57429311 -1.07543945 18.5925293 C-1.08751515 15.75047891 -1.09323045 12.90847753 -1.09765625 10.06640625 C-1.10281754 9.17474258 -1.10797882 8.28307892 -1.11329651 7.36439514 C-1.11349177 5.24259399 -1.0621003 3.1208922 -1 1 C-0.67 0.67 -0.34 0.34 0 0 Z " fill="#121212" transform="translate(590,678)"/>
<path d="M0 0 C0.495 2.475 0.495 2.475 1 5 C0.34 5.33 -0.32 5.66 -1 6 C-1.845625 5.525625 -2.69125 5.05125 -3.5625 4.5625 C-8.70871152 2.22331295 -13.36494926 2.35587649 -18.8125 3.6875 C-22.19477381 5.71686429 -24.25021351 8.50042702 -26 12 C-26.57238172 19.96931473 -26.78166998 26.43048211 -21.5 32.8125 C-17.00995507 36.3671189 -10.34600029 35.05748387 -5 35 C-5 30.71 -5 26.42 -5 22 C-8.3 22 -11.6 22 -15 22 C-15 20.35 -15 18.7 -15 17 C-12.52076199 16.97314905 -10.0418116 16.95323453 -7.5625 16.9375 C-6.85544922 16.92912109 -6.14839844 16.92074219 -5.41992188 16.91210938 C-3.61306441 16.90346412 -1.80612397 16.94779989 0 17 C1 18 1 18 1.11352539 19.85766602 C1.10828857 20.64842529 1.10305176 21.43918457 1.09765625 22.25390625 C1.09443359 23.10791016 1.09121094 23.96191406 1.08789062 24.84179688 C1.07532227 26.18854492 1.07532227 26.18854492 1.0625 27.5625 C1.05798828 28.46419922 1.05347656 29.36589844 1.04882812 30.29492188 C1.03700225 32.53001314 1.0205222 34.76497437 1 37 C-6.47037918 40.78080249 -12.2221887 42.22617128 -20.5625 39.9375 C-25.44990149 38.15268102 -28.36276054 35.46095759 -31 31 C-33.80133677 24.3552833 -34.07021663 16.57446164 -31.8125 9.75 C-29.44841339 4.16720391 -25.32796943 0.73229202 -20 -2 C-13.05557009 -4.54629097 -6.58547848 -2.50875371 0 0 Z " fill="#141414" transform="translate(662,680)"/>
<path d="M0 0 C0.495 2.475 0.495 2.475 1 5 C0.34 5.33 -0.32 5.66 -1 6 C-1.845625 5.525625 -2.69125 5.05125 -3.5625 4.5625 C-8.70871152 2.22331295 -13.36494926 2.35587649 -18.8125 3.6875 C-22.19477381 5.71686429 -24.25021351 8.50042702 -26 12 C-26.98558702 21.24676778 -26.98558702 21.24676778 -24.125 29.75 C-20.38809865 33.70671907 -18.67513504 34.90659445 -13.203125 35.09765625 C-12.22859375 35.08605469 -11.2540625 35.07445312 -10.25 35.0625 C-8.5175 35.041875 -6.785 35.02125 -5 35 C-5 30.71 -5 26.42 -5 22 C-8.3 22 -11.6 22 -15 22 C-15 20.35 -15 18.7 -15 17 C-12.52076199 16.97314905 -10.0418116 16.95323453 -7.5625 16.9375 C-6.85544922 16.92912109 -6.14839844 16.92074219 -5.41992188 16.91210938 C-3.61306441 16.90346412 -1.80612397 16.94779989 0 17 C1 18 1 18 1.11352539 19.85766602 C1.10828857 20.64842529 1.10305176 21.43918457 1.09765625 22.25390625 C1.09443359 23.10791016 1.09121094 23.96191406 1.08789062 24.84179688 C1.07532227 26.18854492 1.07532227 26.18854492 1.0625 27.5625 C1.05798828 28.46419922 1.05347656 29.36589844 1.04882812 30.29492188 C1.03700225 32.53001314 1.0205222 34.76497437 1 37 C-6.50470755 40.79817628 -12.26094317 42.24087298 -20.625 39.875 C-25.8605529 37.95173567 -28.59577552 35.01879837 -30.96484375 29.92578125 C-33.80939604 22.41459019 -34.1377979 15.24119645 -30.98046875 7.78515625 C-28.19627385 2.71592489 -23.49030971 -0.72021977 -18.125 -2.6875 C-11.3899658 -3.67794621 -6.2313189 -2.37383577 0 0 Z " fill="#141414" transform="translate(553,621)"/>
<path d="M0 0 C4.19753982 4.08707824 5.77814548 8.54231287 6.30078125 14.33203125 C6.3534806 29.9837371 6.3534806 29.9837371 1.67578125 35.5859375 C-2.54033244 39.41474416 -6.81431071 40.79762136 -12.375 41.3125 C-18.19215607 40.81102103 -22.98422212 39.562629 -26.9375 35.0625 C-30.28616771 30.09023583 -30.20933014 25.56937902 -30.25 19.6875 C-30.2809375 18.58631836 -30.2809375 18.58631836 -30.3125 17.46289062 C-30.35884759 10.93367453 -28.90374227 6.37967784 -24.75 1.1875 C-17.45459372 -4.61566409 -7.95230098 -4.33131862 0 0 Z M-23 7 C-25.12439758 11.14623804 -25.32842932 14.8130313 -25.375 19.4375 C-25.40335937 20.71496094 -25.43171875 21.99242187 -25.4609375 23.30859375 C-24.82087492 28.43451865 -22.75241124 31.33221224 -19.05859375 34.84765625 C-15.23822629 36.98619211 -11.2355879 36.60508399 -7 36 C-3.12047957 33.9364253 -1.0651477 31.32702019 0.49609375 27.1875 C2.17628113 19.89366331 1.89195012 12.44184848 -2 6 C-4.27278798 3.31397785 -5.86067343 2.20195421 -9.3359375 1.5859375 C-15.67584111 1.22420126 -18.77921397 2.25161572 -23 7 Z " fill="#0D0D0D" transform="translate(350,680)"/>
<path d="M0 0 C4.19753982 4.08707824 5.77814548 8.54231287 6.30078125 14.33203125 C6.3534806 29.9837371 6.3534806 29.9837371 1.67578125 35.5859375 C-2.54033244 39.41474416 -6.81431071 40.79762136 -12.375 41.3125 C-18.19215607 40.81102103 -22.98422212 39.562629 -26.9375 35.0625 C-30.28616771 30.09023583 -30.20933014 25.56937902 -30.25 19.6875 C-30.2809375 18.58631836 -30.2809375 18.58631836 -30.3125 17.46289062 C-30.35884759 10.93367453 -28.90374227 6.37967784 -24.75 1.1875 C-17.45459372 -4.61566409 -7.95230098 -4.33131862 0 0 Z M-23 7 C-25.12439758 11.14623804 -25.32842932 14.8130313 -25.375 19.4375 C-25.40335937 20.71496094 -25.43171875 21.99242187 -25.4609375 23.30859375 C-24.82087492 28.43451865 -22.75241124 31.33221224 -19.05859375 34.84765625 C-15.23822629 36.98619211 -11.2355879 36.60508399 -7 36 C-3.12047957 33.9364253 -1.0651477 31.32702019 0.49609375 27.1875 C2.17628113 19.89366331 1.89195012 12.44184848 -2 6 C-4.27278798 3.31397785 -5.86067343 2.20195421 -9.3359375 1.5859375 C-15.67584111 1.22420126 -18.77921397 2.25161572 -23 7 Z " fill="#0D0D0D" transform="translate(335,621)"/>
<path d="M0 0 C1.65 0 3.3 0 5 0 C5 5.94 5 11.88 5 18 C11.27 18 17.54 18 24 18 C24 12.39 24 6.78 24 1 C25.65 0.67 27.3 0.34 29 0 C29 13.86 29 27.72 29 42 C27.35 41.67 25.7 41.34 24 41 C24 35.06 24 29.12 24 23 C17.73 23 11.46 23 5 23 C5 29.27 5 35.54 5 42 C3.35 42 1.7 42 0 42 C0 28.14 0 14.28 0 0 Z " fill="#090909" transform="translate(396,678)"/>
<path d="M0 0 C1.65 0 3.3 0 5 0 C5 5.94 5 11.88 5 18 C11.27 18 17.54 18 24 18 C24 12.39 24 6.78 24 1 C25.65 0.67 27.3 0.34 29 0 C29 13.86 29 27.72 29 42 C27.35 41.67 25.7 41.34 24 41 C24 35.06 24 29.12 24 23 C17.73 23 11.46 23 5 23 C5 29.27 5 35.54 5 42 C3.35 42 1.7 42 0 42 C0 28.14 0 14.28 0 0 Z " fill="#090909" transform="translate(423,619)"/>
<path d="M0 0 C2.475 0.495 2.475 0.495 5 1 C5.00410889 1.91289795 5.00821777 2.8257959 5.01245117 3.76635742 C5.03949402 7.16834778 5.08863862 10.56855061 5.15258789 13.9699707 C5.17571993 15.43925947 5.1901524 16.90871292 5.19555664 18.37817383 C5.20488279 20.49664345 5.24594127 22.61254065 5.29296875 24.73046875 C5.3086792 26.00301514 5.32438965 27.27556152 5.34057617 28.58666992 C6.16176632 32.83733983 7.66006392 34.33300105 11 37 C13.32153849 37.63209952 13.32153849 37.63209952 15.625 37.375 C16.75808594 37.32472656 16.75808594 37.32472656 17.9140625 37.2734375 C20.18993823 37.04237669 20.18993823 37.04237669 23 36 C24.94603931 31.61793501 25.29213578 27.60670477 25.4140625 22.8515625 C25.43342865 22.19417084 25.4527948 21.53677917 25.4727478 20.85946655 C25.53202461 18.78143865 25.57871794 16.70335376 25.625 14.625 C25.66322778 13.2070085 25.70228223 11.78903903 25.7421875 10.37109375 C25.83768171 6.91426539 25.92190189 3.45727017 26 0 C27.65 0 29.3 0 31 0 C31.09985537 4.10751239 31.17192603 8.21454209 31.21972656 12.32299805 C31.23967995 13.71667814 31.26685319 15.1102763 31.30175781 16.50366211 C31.49929198 24.59965795 31.64136232 32.01051782 27 39 C22.93639435 42.82457002 17.39362095 43.11493256 12 43 C8.94906151 42.50976373 6.46178546 41.89202725 4 40 C0.58475329 34.94104099 -0.57578522 31.24754988 -0.390625 25.09765625 C-0.38496521 24.3750914 -0.37930542 23.65252655 -0.37347412 22.9080658 C-0.35128257 20.62550414 -0.30112549 18.34457802 -0.25 16.0625 C-0.22991244 14.50458014 -0.21166564 12.9466354 -0.1953125 11.38867188 C-0.1514753 7.5918285 -0.08257421 3.79619043 0 0 Z " fill="#0E0E0E" transform="translate(547,678)"/>
<path d="M0 0 C2.475 0.495 2.475 0.495 5 1 C5.00410889 1.91289795 5.00821777 2.8257959 5.01245117 3.76635742 C5.03949402 7.16834778 5.08863862 10.56855061 5.15258789 13.9699707 C5.17571993 15.43925947 5.1901524 16.90871292 5.19555664 18.37817383 C5.20488279 20.49664345 5.24594127 22.61254065 5.29296875 24.73046875 C5.3086792 26.00301514 5.32438965 27.27556152 5.34057617 28.58666992 C6.16176632 32.83733983 7.66006392 34.33300105 11 37 C13.32153849 37.63209952 13.32153849 37.63209952 15.625 37.375 C16.75808594 37.32472656 16.75808594 37.32472656 17.9140625 37.2734375 C20.18993823 37.04237669 20.18993823 37.04237669 23 36 C24.94603931 31.61793501 25.29213578 27.60670477 25.4140625 22.8515625 C25.43342865 22.19417084 25.4527948 21.53677917 25.4727478 20.85946655 C25.53202461 18.78143865 25.57871794 16.70335376 25.625 14.625 C25.66322778 13.2070085 25.70228223 11.78903903 25.7421875 10.37109375 C25.83768171 6.91426539 25.92190189 3.45727017 26 0 C27.65 0 29.3 0 31 0 C31.09985537 4.10751239 31.17192603 8.21454209 31.21972656 12.32299805 C31.23967995 13.71667814 31.26685319 15.1102763 31.30175781 16.50366211 C31.49929198 24.59965795 31.64136232 32.01051782 27 39 C22.93639435 42.82457002 17.39362095 43.11493256 12 43 C8.94906151 42.50976373 6.46178546 41.89202725 4 40 C0.58475329 34.94104099 -0.57578522 31.24754988 -0.390625 25.09765625 C-0.38496521 24.3750914 -0.37930542 23.65252655 -0.37347412 22.9080658 C-0.35128257 20.62550414 -0.30112549 18.34457802 -0.25 16.0625 C-0.22991244 14.50458014 -0.21166564 12.9466354 -0.1953125 11.38867188 C-0.1514753 7.5918285 -0.08257421 3.79619043 0 0 Z " fill="#0E0E0E" transform="translate(437,678)"/>
<path d="M0 0 C1.65 0 3.3 0 5 0 C5.33 5.94 5.66 11.88 6 18 C6.91523437 16.86820313 7.83046875 15.73640625 8.7734375 14.5703125 C9.97389863 13.0884933 11.17442273 11.60672511 12.375 10.125 C12.97828125 9.37863281 13.5815625 8.63226562 14.203125 7.86328125 C14.78320312 7.14785156 15.36328125 6.43242188 15.9609375 5.6953125 C16.49509277 5.03547363 17.02924805 4.37563477 17.57958984 3.69580078 C19 2 19 2 21 0 C23.625 -0.125 23.625 -0.125 26 0 C24.56203739 4.50180339 22.24532921 7.17094229 19 10.5625 C16.08440153 13.61794549 13.77878609 16.18200623 12 20 C12.35304199 20.46897705 12.70608398 20.9379541 13.06982422 21.42114258 C14.6723928 23.55096202 16.27370878 25.68172004 17.875 27.8125 C18.43058594 28.55048828 18.98617187 29.28847656 19.55859375 30.04882812 C20.36103516 31.11713867 20.36103516 31.11713867 21.1796875 32.20703125 C21.67194824 32.8616333 22.16420898 33.51623535 22.67138672 34.19067383 C26 38.72363102 26 38.72363102 26 42 C23.70385742 42.22583008 23.70385742 42.22583008 21 42 C19.27075195 40.48706055 19.27075195 40.48706055 17.73828125 38.38671875 C17.17689453 37.63326172 16.61550781 36.87980469 16.03710938 36.10351562 C15.46798828 35.30623047 14.89886719 34.50894531 14.3125 33.6875 C13.44141602 32.50897461 13.44141602 32.50897461 12.55273438 31.30664062 C10.29898617 28.24519075 8.10892404 25.16338606 6 22 C5.67 28.6 5.34 35.2 5 42 C3.35 42 1.7 42 0 42 C0 28.14 0 14.28 0 0 Z " fill="#141414" transform="translate(514,678)"/>
<path d="M0 0 C1.65 0 3.3 0 5 0 C5.33 5.94 5.66 11.88 6 18 C6.91523438 16.86820313 7.83046875 15.73640625 8.7734375 14.5703125 C9.97389863 13.0884933 11.17442273 11.60672511 12.375 10.125 C12.97828125 9.37863281 13.5815625 8.63226562 14.203125 7.86328125 C14.78320312 7.14785156 15.36328125 6.43242188 15.9609375 5.6953125 C16.49509277 5.03547363 17.02924805 4.37563477 17.57958984 3.69580078 C19 2 19 2 21 0 C23.625 -0.125 23.625 -0.125 26 0 C24.56203739 4.50180339 22.24532921 7.17094229 19 10.5625 C16.08440153 13.61794549 13.77878609 16.18200623 12 20 C12.35304199 20.46897705 12.70608398 20.9379541 13.06982422 21.42114258 C14.6723928 23.55096202 16.27370878 25.68172004 17.875 27.8125 C18.43058594 28.55048828 18.98617188 29.28847656 19.55859375 30.04882812 C20.36103516 31.11713867 20.36103516 31.11713867 21.1796875 32.20703125 C21.67194824 32.8616333 22.16420898 33.51623535 22.67138672 34.19067383 C26 38.72363102 26 38.72363102 26 42 C23.70385742 42.22583008 23.70385742 42.22583008 21 42 C19.27075195 40.48706055 19.27075195 40.48706055 17.73828125 38.38671875 C17.17689453 37.63326172 16.61550781 36.87980469 16.03710938 36.10351562 C15.46798828 35.30623047 14.89886719 34.50894531 14.3125 33.6875 C13.44141602 32.50897461 13.44141602 32.50897461 12.55273438 31.30664062 C10.29898617 28.24519075 8.10892404 25.16338606 6 22 C5.67 28.6 5.34 35.2 5 42 C3.35 42 1.7 42 0 42 C0 28.14 0 14.28 0 0 Z " fill="#141414" transform="translate(479,678)"/>
<path d="M0 0 C7.26 0 14.52 0 22 0 C22 1.65 22 3.3 22 5 C16.39 5 10.78 5 5 5 C5 8.96 5 12.92 5 17 C9.95 17 14.9 17 20 17 C20 18.65 20 20.3 20 22 C15.05 22 10.1 22 5 22 C5 26.95 5 31.9 5 37 C10.61 37 16.22 37 22 37 C22 38.65 22 40.3 22 42 C14.74 42 7.48 42 0 42 C0 28.14 0 14.28 0 0 Z " fill="#090909" transform="translate(756,619)"/>
<path d="M0 0 C7.26 0 14.52 0 22 0 C22 1.65 22 3.3 22 5 C16.39 5 10.78 5 5 5 C5 8.96 5 12.92 5 17 C9.95 17 14.9 17 20 17 C20 18.65 20 20.3 20 22 C15.05 22 10.1 22 5 22 C5 26.95 5 31.9 5 37 C10.61 37 16.22 37 22 37 C22 38.65 22 40.3 22 42 C14.74 42 7.48 42 0 42 C0 28.14 0 14.28 0 0 Z " fill="#090909" transform="translate(614,619)"/>
<path d="M0 0 C1.875 1.75 1.875 1.75 2.1875 4.4375 C2.084375 5.200625 1.98125 5.96375 1.875 6.75 C-2.875 4.875 -2.875 4.875 -5.125 3.75 C-8.18433407 3.32926644 -11.07050496 3.27438659 -14.125 3.75 C-17.47352221 6.31482552 -19.58558875 8.84745743 -21.125 12.75 C-21.47996078 16.05238851 -21.47996078 16.05238851 -21.4375 19.625 C-21.45425781 20.81867187 -21.47101562 22.01234375 -21.48828125 23.2421875 C-21.01306896 27.83079653 -19.51716834 31.14365192 -16.5 34.625 C-12.18871994 36.66718529 -7.50045889 36.50425155 -2.984375 35.0703125 C-1.33349428 34.36566829 0.27638697 33.56631304 1.875 32.75 C2.1875 35.0625 2.1875 35.0625 1.875 37.75 C-2.19989405 41.55323444 -7.76609895 41.88050596 -13.125 41.75 C-17.4217504 40.92737428 -20.29775821 39.5548839 -23.4375 36.5 C-28.14140678 28.83437414 -29.0878519 22.77673655 -28.125 13.75 C-26.47629305 7.14535846 -22.94568862 2.32410705 -17.125 -1.25 C-11.59502278 -3.19510446 -5.32217662 -2.12887065 0 0 Z " fill="#101010" transform="translate(604.125,620.25)"/>
<path d="M0 0 C1.875 1.75 1.875 1.75 2.1875 4.4375 C2.084375 5.200625 1.98125 5.96375 1.875 6.75 C-2.875 4.875 -2.875 4.875 -5.125 3.75 C-8.18433407 3.32926644 -11.07050496 3.27438659 -14.125 3.75 C-17.47352221 6.31482552 -19.58558875 8.84745743 -21.125 12.75 C-21.47996078 16.05238851 -21.47996078 16.05238851 -21.4375 19.625 C-21.45425781 20.81867187 -21.47101563 22.01234375 -21.48828125 23.2421875 C-21.01306896 27.83079653 -19.51716834 31.14365192 -16.5 34.625 C-12.18871994 36.66718529 -7.50045889 36.50425155 -2.984375 35.0703125 C-1.33349428 34.36566829 0.27638697 33.56631304 1.875 32.75 C2.1875 35.0625 2.1875 35.0625 1.875 37.75 C-2.19989405 41.55323444 -7.76609895 41.88050596 -13.125 41.75 C-17.4217504 40.92737428 -20.29775821 39.5548839 -23.4375 36.5 C-28.14140678 28.83437414 -29.0878519 22.77673655 -28.125 13.75 C-26.47629305 7.14535846 -22.94568862 2.32410705 -17.125 -1.25 C-11.59502278 -3.19510446 -5.32217662 -2.12887065 0 0 Z " fill="#101010" transform="translate(412.125,620.25)"/>
<path d="M0 0 C1.875 1.75 1.875 1.75 2.1875 4.4375 C2.084375 5.200625 1.98125 5.96375 1.875 6.75 C-2.875 4.875 -2.875 4.875 -5.125 3.75 C-8.18433407 3.32926644 -11.07050496 3.27438659 -14.125 3.75 C-17.47352221 6.31482552 -19.58558875 8.84745743 -21.125 12.75 C-21.47996078 16.05238851 -21.47996078 16.05238851 -21.4375 19.625 C-21.45425781 20.81867187 -21.47101563 22.01234375 -21.48828125 23.2421875 C-21.01306896 27.83079653 -19.51716834 31.14365192 -16.5 34.625 C-12.18871994 36.66718529 -7.50045889 36.50425155 -2.984375 35.0703125 C-1.33349428 34.36566829 0.27638697 33.56631304 1.875 32.75 C2.1875 35.0625 2.1875 35.0625 1.875 37.75 C-2.19989405 41.55323444 -7.76609895 41.88050596 -13.125 41.75 C-17.4217504 40.92737428 -20.29775821 39.5548839 -23.4375 36.5 C-28.14140678 28.83437414 -29.0878519 22.77673655 -28.125 13.75 C-26.47629305 7.14535846 -22.94568862 2.32410705 -17.125 -1.25 C-11.59502278 -3.19510446 -5.32217662 -2.12887065 0 0 Z " fill="#101010" transform="translate(297.125,620.25)"/>
<path d="M0 0 C9.9 0 19.8 0 30 0 C30 1.65 30 3.3 30 5 C26.04 5 22.08 5 18 5 C18 16.88 18 28.76 18 41 C15.525 41.495 15.525 41.495 13 42 C12 41 12 41 11.88647461 37.58178711 C11.88663372 36.06363012 11.89232774 34.54546771 11.90234375 33.02734375 C11.9037587 32.22970108 11.90517365 31.43205841 11.90663147 30.61024475 C11.91224684 28.05262565 11.92480188 25.49509282 11.9375 22.9375 C11.94251302 21.20768355 11.94707627 19.47786574 11.95117188 17.74804688 C11.96222125 13.49866447 11.97949614 9.24934688 12 5 C8.04 5 4.08 5 0 5 C0 3.35 0 1.7 0 0 Z " fill="#181818" transform="translate(359,678)"/>
<path d="M0 0 C9.9 0 19.8 0 30 0 C30 1.65 30 3.3 30 5 C26.04 5 22.08 5 18 5 C18 16.88 18 28.76 18 41 C15.525 41.495 15.525 41.495 13 42 C12 41 12 41 11.88647461 37.58178711 C11.88663372 36.06363012 11.89232774 34.54546771 11.90234375 33.02734375 C11.9037587 32.22970108 11.90517365 31.43205841 11.90663147 30.61024475 C11.91224684 28.05262565 11.92480188 25.49509282 11.9375 22.9375 C11.94251302 21.20768355 11.94707627 19.47786574 11.95117188 17.74804688 C11.96222125 13.49866447 11.97949614 9.24934688 12 5 C8.04 5 4.08 5 0 5 C0 3.35 0 1.7 0 0 Z " fill="#181818" transform="translate(684,619)"/>
<path d="M0 0 C1.65 0 3.3 0 5 0 C5 12.21 5 24.42 5 37 C10.28 37 15.56 37 21 37 C21 38.65 21 40.3 21 42 C14.07 42 7.14 42 0 42 C0 28.14 0 14.28 0 0 Z " fill="#0A0A0A" transform="translate(711,678)"/>
<path d="M0 0 C1.65 0 3.3 0 5 0 C5 13.86 5 27.72 5 42 C3.35 42 1.7 42 0 42 C0 28.14 0 14.28 0 0 Z " fill="#0A0A0A" transform="translate(514,678)"/>
<path d="M0 0 C1.65 0 3.3 0 5 0 C5 13.86 5 27.72 5 42 C3.35 42 1.7 42 0 42 C0 28.14 0 14.28 0 0 Z " fill="#0A0A0A" transform="translate(479,678)"/>
<path d="M0 0 C1.65 0 3.3 0 5 0 C5 13.86 5 27.72 5 42 C3.35 42 1.7 42 0 42 C0 28.14 0 14.28 0 0 Z " fill="#0A0A0A" transform="translate(464,619)"/>
<path d="M0 0 C1.5675 -0.061875 3.135 -0.12375 4.75 -0.1875 C6.07257812 -0.23970703 6.07257812 -0.23970703 7.421875 -0.29296875 C10.51104409 0.05807319 11.81363777 0.81363777 14 3 C14.55543436 6.81861121 14.53382262 9.05367809 12.625 12.4375 C8.47360478 14.90856858 4.77353037 14.25123844 0 14 C0 9.38 0 4.76 0 0 Z " fill="#F8F8F8" transform="translate(726,624)"/>
<path d="M0 0 C3.37478448 2.6919102 4.30155263 6.00447605 5.6875 10 C6.12449219 11.2375 6.56148438 12.475 7.01171875 13.75 C8 17 8 17 8 20 C3.38 20 -1.24 20 -6 20 C-4.63125844 13.04223041 -2.5466871 6.61396893 0 0 Z " fill="#F2F2F2" transform="translate(362,626)"/>
<path d="M0 0 C3.37478448 2.6919102 4.30155263 6.00447605 5.6875 10 C6.12449219 11.2375 6.56148437 12.475 7.01171875 13.75 C8 17 8 17 8 20 C3.38 20 -1.24 20 -6 20 C-4.63125844 13.04223041 -2.5466871 6.61396893 0 0 Z " fill="#F4F4F4" transform="translate(685,685)"/>
<path d="M0 0 C0.66 0.33 1.32 0.66 2 1 C-1.3 4.3 -4.6 7.6 -8 11 C-8 7.0234755 -6.61988497 5.9109833 -4 3 C-1.75 1.1875 -1.75 1.1875 0 0 Z " fill="#6A6CB1" transform="translate(717,375)"/>
</svg>
